# xmcd CD database file
#
# Track frame offsets:
#	150
#	12480
#	36081
#	56117
#	76092
#	97613
#	115710
#	140456
#	157341
#	175466
#	193811
#	214729
#
# Disc length: 3089 seconds
#
# Revision: 0
# Processed by: cddbd v1.5.1PL0 Copyright (c) Steve Scherf et al.
# Submitted via: CDex 1.51
#
DISCID=a10c0f0c
DTITLE=John Denver - Greatest Hits-Disc 2
DYEAR=2005
DGENRE=Country
TTITLE0=Carolina in My Mind
TTITLE1=Sunshine on My Shoulders
TTITLE2=I'd Rather Be a Cowboy
TTITLE3=Darcy Farrow
TTITLE4=Back Home Again
TTITLE5=Windsong
TTITLE6=Sweet Surrender
TTITLE7=Like a Sad Song
TTITLE8=Some Days Are Diamonds
TTITLE9=San Francisco Mabel Joy
TTITLE10=The Cowboy and the Lady
TTITLE11=I Want to Live
EXTD=YEAR: 2005
EXTT0=
EXTT1=
EXTT2=
EXTT3=
EXTT4=
EXTT5=
EXTT6=
EXTT7=
EXTT8=
EXTT9=
EXTT10=
EXTT11=
PLAYORDER=
